<svg xmlns="http://www.w3.org/2000/svg" xmlns:xlink="http://www.w3.org/1999/xlink" width="256" zoomAndPan="magnify" viewBox="0 0 192 191.999996" height="256" preserveAspectRatio="xMidYMid meet" version="1.0"><defs><clipPath id="5bd0f1d5bc"><path d="M 13.632812 13.632812 L 178.632812 13.632812 L 178.632812 178.632812 L 13.632812 178.632812 Z M 13.632812 13.632812 " clip-rule="nonzero"/></clipPath></defs><g clip-path="url(#5bd0f1d5bc)"><path fill="#eeeeee" d="M 96 13.632812 C 94.652344 13.632812 93.304688 13.667969 91.957031 13.734375 C 90.609375 13.800781 89.265625 13.898438 87.925781 14.03125 C 86.585938 14.164062 85.246094 14.328125 83.914062 14.523438 C 82.578125 14.722656 81.253906 14.953125 79.929688 15.214844 C 78.609375 15.480469 77.292969 15.773438 75.984375 16.101562 C 74.679688 16.429688 73.378906 16.789062 72.089844 17.179688 C 70.800781 17.570312 69.519531 17.996094 68.25 18.449219 C 66.980469 18.902344 65.722656 19.386719 64.480469 19.902344 C 63.234375 20.417969 62 20.964844 60.785156 21.542969 C 59.566406 22.117188 58.359375 22.722656 57.171875 23.359375 C 55.984375 23.996094 54.8125 24.660156 53.65625 25.351562 C 52.5 26.042969 51.359375 26.765625 50.238281 27.515625 C 49.117188 28.261719 48.015625 29.039062 46.933594 29.84375 C 45.851562 30.644531 44.789062 31.472656 43.746094 32.328125 C 42.703125 33.183594 41.683594 34.066406 40.6875 34.96875 C 39.6875 35.875 38.710938 36.804688 37.757812 37.757812 C 36.804688 38.710938 35.875 39.6875 34.96875 40.6875 C 34.066406 41.683594 33.183594 42.703125 32.328125 43.746094 C 31.472656 44.789062 30.644531 45.851562 29.84375 46.933594 C 29.039062 48.015625 28.261719 49.117188 27.515625 50.238281 C 26.765625 51.359375 26.042969 52.5 25.351562 53.65625 C 24.660156 54.8125 23.996094 55.984375 23.359375 57.171875 C 22.722656 58.359375 22.117188 59.566406 21.542969 60.785156 C 20.964844 62 20.417969 63.234375 19.902344 64.480469 C 19.386719 65.722656 18.902344 66.980469 18.449219 68.25 C 17.996094 69.519531 17.570312 70.800781 17.179688 72.089844 C 16.789062 73.378906 16.429688 74.679688 16.101562 75.984375 C 15.773438 77.292969 15.480469 78.609375 15.214844 79.929688 C 14.953125 81.253906 14.722656 82.578125 14.523438 83.914062 C 14.328125 85.246094 14.164062 86.585938 14.03125 87.925781 C 13.898438 89.265625 13.800781 90.609375 13.734375 91.957031 C 13.667969 93.304688 13.632812 94.652344 13.632812 96 C 13.632812 97.347656 13.667969 98.695312 13.734375 100.039062 C 13.800781 101.386719 13.898438 102.730469 14.03125 104.070312 C 14.164062 105.414062 14.328125 106.75 14.523438 108.085938 C 14.722656 109.417969 14.953125 110.746094 15.214844 112.066406 C 15.480469 113.390625 15.773438 114.703125 16.101562 116.011719 C 16.429688 117.320312 16.789062 118.617188 17.179688 119.910156 C 17.570312 121.199219 17.996094 122.476562 18.449219 123.746094 C 18.902344 125.015625 19.386719 126.273438 19.902344 127.519531 C 20.417969 128.765625 20.964844 129.996094 21.542969 131.214844 C 22.117188 132.433594 22.722656 133.636719 23.359375 134.824219 C 23.996094 136.015625 24.660156 137.1875 25.351562 138.34375 C 26.042969 139.5 26.765625 140.636719 27.515625 141.757812 C 28.261719 142.878906 29.039062 143.980469 29.84375 145.0625 C 30.644531 146.148438 31.472656 147.207031 32.328125 148.25 C 33.183594 149.292969 34.066406 150.3125 34.96875 151.3125 C 35.875 152.3125 36.804688 153.285156 37.757812 154.238281 C 38.710938 155.191406 39.6875 156.121094 40.6875 157.027344 C 41.683594 157.933594 42.703125 158.8125 43.746094 159.667969 C 44.789062 160.523438 45.851562 161.351562 46.933594 162.15625 C 48.015625 162.957031 49.117188 163.734375 50.238281 164.484375 C 51.359375 165.230469 52.5 165.953125 53.65625 166.644531 C 54.8125 167.339844 55.984375 168.003906 57.171875 168.636719 C 58.359375 169.273438 59.566406 169.878906 60.785156 170.457031 C 62 171.03125 63.234375 171.578125 64.480469 172.09375 C 65.722656 172.609375 66.980469 173.09375 68.25 173.550781 C 69.519531 174.003906 70.800781 174.425781 72.089844 174.816406 C 73.378906 175.207031 74.679688 175.566406 75.984375 175.894531 C 77.292969 176.222656 78.609375 176.519531 79.929688 176.78125 C 81.253906 177.042969 82.578125 177.273438 83.914062 177.472656 C 85.246094 177.671875 86.585938 177.835938 87.925781 177.96875 C 89.265625 178.101562 90.609375 178.199219 91.957031 178.265625 C 93.304688 178.332031 94.652344 178.363281 96 178.363281 C 97.347656 178.363281 98.695312 178.332031 100.039062 178.265625 C 101.386719 178.199219 102.730469 178.101562 104.070312 177.96875 C 105.414062 177.835938 106.75 177.671875 108.085938 177.472656 C 109.417969 177.273438 110.746094 177.042969 112.066406 176.78125 C 113.390625 176.519531 114.703125 176.222656 116.011719 175.894531 C 117.320312 175.566406 118.617188 175.207031 119.910156 174.816406 C 121.199219 174.425781 122.476562 174.003906 123.746094 173.550781 C 125.015625 173.09375 126.273438 172.609375 127.519531 172.09375 C 128.765625 171.578125 129.996094 171.03125 131.214844 170.457031 C 132.433594 169.878906 133.636719 169.273438 134.824219 168.636719 C 136.015625 168.003906 137.1875 167.339844 138.34375 166.644531 C 139.5 165.953125 140.636719 165.230469 141.757812 164.484375 C 142.878906 163.734375 143.980469 162.957031 145.0625 162.15625 C 146.148438 161.351562 147.207031 160.523438 148.25 159.667969 C 149.292969 158.8125 150.3125 157.933594 151.3125 157.027344 C 152.3125 156.121094 153.285156 155.191406 154.238281 154.238281 C 155.191406 153.285156 156.121094 152.3125 157.027344 151.3125 C 157.933594 150.3125 158.8125 149.292969 159.667969 148.25 C 160.523438 147.207031 161.351562 146.144531 162.15625 145.0625 C 162.957031 143.980469 163.734375 142.878906 164.484375 141.757812 C 165.230469 140.636719 165.953125 139.5 166.644531 138.34375 C 167.339844 137.1875 168.003906 136.015625 168.636719 134.824219 C 169.273438 133.636719 169.878906 132.433594 170.457031 131.214844 C 171.03125 129.996094 171.578125 128.765625 172.09375 127.519531 C 172.609375 126.273438 173.09375 125.015625 173.550781 123.746094 C 174.003906 122.476562 174.425781 121.199219 174.816406 119.910156 C 175.207031 118.617188 175.566406 117.320312 175.894531 116.011719 C 176.222656 114.703125 176.519531 113.390625 176.78125 112.066406 C 177.042969 110.746094 177.273438 109.417969 177.472656 108.085938 C 177.671875 106.75 177.835938 105.414062 177.96875 104.070312 C 178.101562 102.730469 178.199219 101.386719 178.265625 100.039062 C 178.332031 98.695312 178.363281 97.347656 178.363281 96 C 178.363281 94.652344 178.332031 93.304688 178.265625 91.957031 C 178.199219 90.609375 178.101562 89.265625 177.96875 87.925781 C 177.835938 86.585938 177.671875 85.246094 177.472656 83.914062 C 177.273438 82.578125 177.042969 81.253906 176.78125 79.929688 C 176.519531 78.609375 176.222656 77.292969 175.894531 75.984375 C 175.566406 74.679688 175.207031 73.378906 174.816406 72.089844 C 174.425781 70.800781 174.003906 69.519531 173.550781 68.25 C 173.09375 66.980469 172.609375 65.722656 172.09375 64.480469 C 171.578125 63.234375 171.03125 62 170.457031 60.785156 C 169.878906 59.566406 169.273438 58.359375 168.636719 57.171875 C 168.003906 55.984375 167.339844 54.8125 166.644531 53.65625 C 165.953125 52.5 165.230469 51.359375 164.484375 50.238281 C 163.734375 49.117188 162.957031 48.015625 162.15625 46.933594 C 161.351562 45.851562 160.523438 44.789062 159.667969 43.746094 C 158.8125 42.703125 157.933594 41.683594 157.027344 40.6875 C 156.121094 39.6875 155.191406 38.710938 154.238281 37.757812 C 153.285156 36.804688 152.3125 35.875 151.3125 34.96875 C 150.3125 34.066406 149.292969 33.183594 148.25 32.328125 C 147.207031 31.472656 146.144531 30.644531 145.0625 29.84375 C 143.980469 29.039062 142.878906 28.261719 141.757812 27.515625 C 140.636719 26.765625 139.5 26.042969 138.34375 25.351562 C 137.1875 24.660156 136.015625 23.996094 134.824219 23.359375 C 133.636719 22.722656 132.433594 22.117188 131.214844 21.542969 C 129.996094 20.964844 128.765625 20.417969 127.519531 19.902344 C 126.273438 19.386719 125.015625 18.902344 123.746094 18.449219 C 122.476562 17.996094 121.199219 17.570312 119.910156 17.179688 C 118.617188 16.789062 117.320312 16.429688 116.011719 16.101562 C 114.703125 15.773438 113.390625 15.480469 112.066406 15.214844 C 110.746094 14.953125 109.417969 14.722656 108.085938 14.523438 C 106.75 14.328125 105.414062 14.164062 104.070312 14.03125 C 102.730469 13.898438 101.386719 13.800781 100.039062 13.734375 C 98.695312 13.667969 97.347656 13.632812 96 13.632812 Z M 117.710938 163.148438 L 117.070312 163.148438 C 116.058594 163.203125 115.183594 162.882812 114.449219 162.1875 C 113.769531 161.46875 113.449219 160.617188 113.488281 159.632812 L 113.488281 149.984375 C 113.527344 146.777344 113.554688 143.53125 113.554688 140.261719 C 113.546875 137.863281 113.199219 135.511719 112.519531 133.207031 C 111.867188 130.84375 110.625 128.839844 108.800781 127.203125 C 113.605469 126.738281 118.265625 125.660156 122.789062 123.96875 C 126.632812 122.507812 129.984375 120.300781 132.851562 117.351562 C 135.644531 114.421875 137.722656 110.878906 138.925781 107.015625 C 140.394531 102.253906 141.082031 97.378906 140.984375 92.394531 C 141.011719 88.910156 140.417969 85.53125 139.199219 82.265625 C 137.960938 78.96875 136.144531 76.03125 133.742188 73.453125 C 134.257812 72.160156 134.628906 70.828125 134.855469 69.457031 C 135.082031 68.082031 135.199219 66.699219 135.199219 65.3125 C 135.199219 63.527344 134.992188 61.742188 134.582031 60.003906 C 134.207031 58.222656 133.699219 56.476562 133.0625 54.769531 C 132.816406 54.671875 132.5625 54.625 132.300781 54.632812 L 131.546875 54.632812 C 129.96875 54.644531 128.417969 54.90625 126.921875 55.394531 C 125.269531 55.875 123.660156 56.46875 122.09375 57.175781 C 120.539062 57.875 119.023438 58.660156 117.558594 59.53125 C 116.082031 60.402344 114.777344 61.242188 113.625 62.015625 C 107.851562 60.40625 101.96875 59.601562 95.976562 59.601562 C 89.980469 59.601562 84.097656 60.40625 78.324219 62.015625 C 77.035156 61.15625 75.726562 60.328125 74.398438 59.53125 C 72.910156 58.652344 71.371094 57.871094 69.785156 57.183594 C 68.222656 56.453125 66.609375 55.855469 64.945312 55.394531 C 63.472656 54.90625 61.957031 54.652344 60.402344 54.632812 L 59.648438 54.632812 C 59.386719 54.628906 59.136719 54.671875 58.894531 54.769531 C 58.246094 56.476562 57.722656 58.222656 57.316406 60.003906 C 56.945312 61.75 56.765625 63.527344 56.757812 65.3125 C 56.757812 66.699219 56.875 68.082031 57.109375 69.457031 C 57.335938 70.824219 57.699219 72.160156 58.207031 73.453125 C 55.8125 76.03125 54 78.972656 52.769531 82.269531 C 51.546875 85.539062 50.945312 88.914062 50.964844 92.402344 C 50.867188 97.359375 51.539062 102.207031 52.96875 106.953125 C 54.210938 110.816406 56.285156 114.367188 59.039062 117.359375 C 61.886719 120.253906 65.316406 122.507812 69.101562 123.976562 C 73.582031 125.691406 78.277344 126.789062 83.054688 127.242188 C 81.703125 128.464844 80.671875 129.914062 79.953125 131.585938 C 79.273438 133.230469 78.816406 134.933594 78.578125 136.695312 C 76.027344 137.914062 73.339844 138.53125 70.515625 138.546875 C 69.21875 138.597656 67.945312 138.449219 66.695312 138.097656 C 65.445312 137.746094 64.28125 137.210938 63.203125 136.488281 C 61.113281 134.941406 59.394531 133.054688 58.042969 130.832031 C 57.441406 129.90625 56.773438 129.03125 56.039062 128.210938 C 55.261719 127.34375 54.410156 126.5625 53.484375 125.855469 C 52.570312 125.171875 51.582031 124.625 50.519531 124.207031 C 49.46875 123.746094 48.367188 123.515625 47.21875 123.515625 C 46.945312 123.523438 46.667969 123.550781 46.394531 123.585938 C 46.019531 123.582031 45.648438 123.628906 45.28125 123.722656 C 44.960938 123.804688 44.664062 123.941406 44.390625 124.132812 C 44.121094 124.28125 43.984375 124.511719 43.976562 124.820312 C 44.039062 125.523438 44.359375 126.078125 44.9375 126.480469 C 45.578125 126.988281 46.105469 127.378906 46.53125 127.65625 L 46.738281 127.796875 C 47.652344 128.503906 48.527344 129.269531 49.359375 130.085938 C 50.128906 130.757812 50.820312 131.519531 51.417969 132.347656 C 52.035156 133.167969 52.570312 134.039062 53.003906 134.964844 C 53.503906 135.882812 54.035156 136.941406 54.589844 138.140625 C 55.878906 141.394531 58.171875 144.148438 61.136719 146 C 64.246094 147.667969 67.734375 148.5 71.269531 148.410156 C 72.464844 148.410156 73.664062 148.34375 74.851562 148.203125 C 76.03125 148.011719 77.207031 147.8125 78.386719 147.582031 L 78.386719 159.542969 C 78.398438 159.785156 78.382812 160.023438 78.34375 160.261719 C 78.304688 160.5 78.238281 160.730469 78.148438 160.957031 C 78.0625 161.179688 77.949219 161.394531 77.816406 161.59375 C 77.683594 161.796875 77.53125 161.980469 77.355469 162.148438 C 77.183594 162.320312 76.996094 162.46875 76.792969 162.597656 C 76.585938 162.726562 76.371094 162.832031 76.144531 162.914062 C 75.917969 163 75.6875 163.058594 75.449219 163.09375 C 75.207031 163.125 74.96875 163.136719 74.726562 163.121094 L 74.300781 163.121094 C 72.980469 162.691406 71.675781 162.226562 70.382812 161.722656 C 69.089844 161.222656 67.8125 160.679688 66.550781 160.101562 C 65.292969 159.523438 64.046875 158.90625 62.824219 158.253906 C 61.597656 157.601562 60.394531 156.914062 59.210938 156.191406 C 58.027344 155.46875 56.863281 154.710938 55.726562 153.917969 C 54.585938 153.128906 53.46875 152.304688 52.378906 151.445312 C 51.289062 150.589844 50.222656 149.699219 49.183594 148.78125 C 48.148438 147.859375 47.136719 146.910156 46.152344 145.929688 C 45.171875 144.949219 44.21875 143.941406 43.296875 142.90625 C 42.371094 141.871094 41.480469 140.808594 40.621094 139.71875 C 39.761719 138.632812 38.933594 137.519531 38.136719 136.382812 C 37.34375 135.246094 36.582031 134.085938 35.855469 132.902344 C 35.128906 131.71875 34.4375 130.519531 33.78125 129.296875 C 33.128906 128.074219 32.507812 126.832031 31.925781 125.570312 C 31.34375 124.3125 30.796875 123.039062 30.292969 121.746094 C 29.785156 120.453125 29.316406 119.148438 28.886719 117.832031 C 28.453125 116.511719 28.0625 115.179688 27.710938 113.839844 C 27.359375 112.496094 27.046875 111.144531 26.777344 109.785156 C 26.503906 108.421875 26.273438 107.054688 26.082031 105.683594 C 25.890625 104.308594 25.738281 102.929688 25.628906 101.546875 C 25.519531 100.164062 25.449219 98.777344 25.421875 97.390625 C 25.390625 96.003906 25.402344 94.617188 25.457031 93.230469 C 25.511719 91.84375 25.605469 90.460938 25.738281 89.078125 C 25.875 87.699219 26.050781 86.324219 26.265625 84.953125 C 26.480469 83.582031 26.738281 82.21875 27.03125 80.863281 C 27.328125 79.507812 27.664062 78.160156 28.039062 76.828125 C 28.417969 75.492188 28.832031 74.167969 29.285156 72.855469 C 29.738281 71.542969 30.230469 70.25 30.761719 68.964844 C 31.289062 67.683594 31.859375 66.417969 32.460938 65.167969 C 33.066406 63.921875 33.707031 62.691406 34.386719 61.480469 C 35.0625 60.269531 35.773438 59.078125 36.523438 57.910156 C 37.269531 56.742188 38.050781 55.59375 38.863281 54.472656 C 39.679688 53.347656 40.527344 52.25 41.40625 51.179688 C 42.285156 50.105469 43.195312 49.058594 44.136719 48.039062 C 45.078125 47.019531 46.050781 46.03125 47.050781 45.066406 C 48.050781 44.105469 49.078125 43.171875 50.132812 42.273438 C 51.1875 41.371094 52.265625 40.5 53.371094 39.664062 C 54.476562 38.824219 55.609375 38.019531 56.761719 37.25 C 57.914062 36.476562 59.089844 35.742188 60.285156 35.039062 C 61.484375 34.335938 62.699219 33.671875 63.9375 33.039062 C 65.171875 32.410156 66.425781 31.816406 67.695312 31.261719 C 68.96875 30.703125 70.253906 30.1875 71.554688 29.707031 C 72.855469 29.226562 74.171875 28.785156 75.5 28.378906 C 76.828125 27.976562 78.164062 27.613281 79.515625 27.289062 C 80.863281 26.964844 82.222656 26.683594 83.585938 26.4375 C 84.953125 26.195312 86.324219 25.988281 87.703125 25.828125 C 89.082031 25.664062 90.460938 25.542969 91.847656 25.460938 C 93.230469 25.378906 94.617188 25.335938 96.003906 25.335938 C 97.394531 25.335938 98.78125 25.378906 100.164062 25.460938 C 101.550781 25.542969 102.929688 25.664062 104.308594 25.828125 C 105.6875 25.988281 107.058594 26.195312 108.425781 26.4375 C 109.789062 26.683594 111.148438 26.964844 112.496094 27.289062 C 113.847656 27.613281 115.183594 27.976562 116.511719 28.378906 C 117.839844 28.785156 119.152344 29.226562 120.457031 29.707031 C 121.757812 30.1875 123.042969 30.703125 124.316406 31.261719 C 125.585938 31.816406 126.839844 32.410156 128.074219 33.039062 C 129.3125 33.671875 130.527344 34.335938 131.726562 35.039062 C 132.921875 35.742188 134.097656 36.476562 135.25 37.25 C 136.402344 38.019531 137.53125 38.824219 138.640625 39.664062 C 139.746094 40.5 140.824219 41.371094 141.878906 42.273438 C 142.933594 43.171875 143.960938 44.105469 144.960938 45.066406 C 145.960938 46.03125 146.933594 47.019531 147.875 48.039062 C 148.8125 49.058594 149.726562 50.105469 150.605469 51.179688 C 151.484375 52.25 152.332031 53.347656 153.144531 54.472656 C 153.960938 55.59375 154.742188 56.742188 155.488281 57.910156 C 156.238281 59.078125 156.949219 60.269531 157.625 61.480469 C 158.304688 62.691406 158.945312 63.921875 159.550781 65.167969 C 160.152344 66.417969 160.722656 67.683594 161.25 68.964844 C 161.78125 70.25 162.273438 71.542969 162.726562 72.855469 C 163.179688 74.167969 163.59375 75.492188 163.96875 76.828125 C 164.347656 78.160156 164.683594 79.507812 164.976562 80.863281 C 165.273438 82.21875 165.53125 83.582031 165.746094 84.953125 C 165.960938 86.324219 166.136719 87.699219 166.273438 89.078125 C 166.40625 90.460938 166.5 91.84375 166.554688 93.230469 C 166.609375 94.617188 166.621094 96.003906 166.589844 97.390625 C 166.5625 98.777344 166.492188 100.164062 166.382812 101.546875 C 166.273438 102.929688 166.121094 104.308594 165.929688 105.683594 C 165.738281 107.054688 165.507812 108.421875 165.234375 109.785156 C 164.964844 111.144531 164.652344 112.496094 164.300781 113.839844 C 163.949219 115.179688 163.554688 116.511719 163.125 117.832031 C 162.695312 119.148438 162.226562 120.453125 161.71875 121.746094 C 161.214844 123.039062 160.667969 124.3125 160.085938 125.570312 C 159.503906 126.832031 158.882812 128.074219 158.230469 129.296875 C 157.574219 130.519531 156.882812 131.71875 156.15625 132.902344 C 155.429688 134.085938 154.667969 135.246094 153.875 136.382812 C 153.078125 137.519531 152.25 138.632812 151.390625 139.71875 C 150.53125 140.808594 149.640625 141.871094 148.714844 142.90625 C 147.792969 143.941406 146.839844 144.949219 145.859375 145.929688 C 144.875 146.910156 143.863281 147.859375 142.824219 148.78125 C 141.789062 149.699219 140.722656 150.589844 139.632812 151.445312 C 138.542969 152.304688 137.425781 153.128906 136.285156 153.917969 C 135.148438 154.710938 133.984375 155.46875 132.800781 156.191406 C 131.617188 156.914062 130.414062 157.601562 129.1875 158.253906 C 127.964844 158.90625 126.71875 159.523438 125.460938 160.101562 C 124.199219 160.679688 122.921875 161.222656 121.628906 161.722656 C 120.335938 162.226562 119.027344 162.691406 117.710938 163.121094 L 117.710938 163.152344 Z M 117.710938 163.148438 " fill-opacity="1" fill-rule="nonzero"/></g></svg>