<svg xmlns="http://www.w3.org/2000/svg" xmlns:xlink="http://www.w3.org/1999/xlink" width="256" zoomAndPan="magnify" viewBox="0 0 192 191.999996" height="256" preserveAspectRatio="xMidYMid meet" version="1.0"><defs><clipPath id="ba5d394f99"><path d="M 43 4.355469 L 149 4.355469 L 149 29 L 43 29 Z M 43 4.355469 " clip-rule="nonzero"/></clipPath></defs><path fill="#e44d26" d="M 160.515625 40.230469 L 148.734375 172.210938 L 95.777344 186.894531 L 42.964844 172.234375 L 31.195312 40.230469 Z M 160.515625 40.230469 " fill-opacity="1" fill-rule="nonzero"/><path fill="#f16529" d="M 95.855469 175.671875 L 138.648438 163.808594 L 148.714844 51.023438 L 95.855469 51.023438 Z M 95.855469 175.671875 " fill-opacity="1" fill-rule="nonzero"/><path fill="#ebebeb" d="M 72.953125 83.402344 L 95.855469 83.402344 L 95.855469 67.210938 L 55.261719 67.210938 L 55.648438 71.554688 L 59.625 116.171875 L 95.855469 116.171875 L 95.855469 99.980469 L 74.433594 99.980469 Z M 76.601562 124.265625 L 60.351562 124.265625 L 62.617188 149.683594 L 95.78125 158.890625 L 95.855469 158.871094 L 95.855469 142.027344 L 95.785156 142.046875 L 77.753906 137.175781 Z M 76.601562 124.265625 " fill-opacity="1" fill-rule="nonzero"/><g clip-path="url(#ba5d394f99)"><path fill="#000000" d="M 43.226562 4.355469 L 51.453125 4.355469 L 51.453125 12.484375 L 58.980469 12.484375 L 58.980469 4.355469 L 67.207031 4.355469 L 67.207031 28.972656 L 58.980469 28.972656 L 58.980469 20.730469 L 51.453125 20.730469 L 51.453125 28.972656 L 43.226562 28.972656 Z M 78.027344 12.519531 L 70.785156 12.519531 L 70.785156 4.355469 L 93.503906 4.355469 L 93.503906 12.519531 L 86.257812 12.519531 L 86.257812 28.972656 L 78.027344 28.972656 Z M 97.109375 4.355469 L 105.6875 4.355469 L 110.964844 13.003906 L 116.234375 4.355469 L 124.816406 4.355469 L 124.816406 28.972656 L 116.625 28.972656 L 116.625 16.769531 L 110.964844 25.523438 L 110.820312 25.523438 L 105.160156 16.769531 L 105.160156 28.972656 L 97.109375 28.972656 Z M 128.914062 4.355469 L 137.144531 4.355469 L 137.144531 20.835938 L 148.710938 20.835938 L 148.710938 28.972656 L 128.914062 28.972656 Z M 128.914062 4.355469 " fill-opacity="1" fill-rule="nonzero"/></g><path fill="#ffffff" d="M 95.800781 116.171875 L 115.734375 116.171875 L 113.855469 137.167969 L 95.800781 142.039062 L 95.800781 158.882812 L 128.988281 149.683594 L 129.234375 146.949219 L 133.039062 104.328125 L 133.433594 99.980469 L 95.800781 99.980469 Z M 95.800781 83.363281 L 95.800781 83.402344 L 134.90625 83.402344 L 135.230469 79.761719 L 135.96875 71.554688 L 136.355469 67.210938 L 95.800781 67.210938 Z M 95.800781 83.363281 " fill-opacity="1" fill-rule="nonzero"/></svg>