<svg xmlns="http://www.w3.org/2000/svg" xmlns:xlink="http://www.w3.org/1999/xlink" width="256" zoomAndPan="magnify" viewBox="0 0 192 191.999996" height="256" preserveAspectRatio="xMidYMid meet" version="1.0"><defs><clipPath id="5a0811035e"><path d="M 13.632812 13.632812 L 178.632812 13.632812 L 178.632812 178.632812 L 13.632812 178.632812 Z M 13.632812 13.632812 " clip-rule="nonzero"/></clipPath></defs><g clip-path="url(#5a0811035e)"><path fill="#f7df1e" d="M 13.632812 13.632812 L 178.632812 13.632812 L 178.632812 178.632812 L 13.632812 178.632812 Z M 13.632812 13.632812 " fill-opacity="1" fill-rule="nonzero"/></g><path fill="#000000" d="M 57.019531 151.519531 L 69.644531 143.878906 C 72.082031 148.195312 74.296875 151.851562 79.613281 151.851562 C 84.707031 151.851562 87.921875 149.859375 87.921875 142.105469 L 87.921875 89.386719 L 103.425781 89.386719 L 103.425781 142.324219 C 103.425781 158.386719 94.011719 165.695312 80.277344 165.695312 C 67.871094 165.695312 60.671875 159.269531 57.019531 151.519531 M 111.847656 149.859375 L 124.472656 142.546875 C 127.796875 147.976562 132.117188 151.964844 139.757812 151.964844 C 146.183594 151.964844 150.28125 148.75 150.28125 144.320312 C 150.28125 139.003906 146.070312 137.121094 138.984375 134.019531 L 135.105469 132.359375 C 123.921875 127.597656 116.5 121.613281 116.5 108.988281 C 116.5 97.359375 125.359375 88.496094 139.207031 88.496094 C 149.0625 88.496094 156.152344 91.933594 161.246094 100.902344 L 149.171875 108.65625 C 146.511719 103.894531 143.636719 102.011719 139.203125 102.011719 C 134.664062 102.011719 131.785156 104.890625 131.785156 108.65625 C 131.785156 113.308594 134.664062 115.191406 141.308594 118.070312 L 145.183594 119.734375 C 158.363281 125.382812 165.785156 131.140625 165.785156 144.097656 C 165.785156 158.054688 154.820312 165.699219 140.089844 165.699219 C 125.691406 165.699219 116.386719 158.832031 111.847656 149.859375 " fill-opacity="1" fill-rule="nonzero"/></svg>