<svg xmlns="http://www.w3.org/2000/svg" xmlns:xlink="http://www.w3.org/1999/xlink" width="80" zoomAndPan="magnify" viewBox="0 0 60 44.999999" height="60" preserveAspectRatio="xMidYMid meet" version="1.0"><defs><clipPath id="f66cbede14"><path d="M 0.96875 1.492188 L 58.71875 1.492188 L 58.71875 43.492188 L 0.96875 43.492188 Z M 0.96875 1.492188 " clip-rule="nonzero"/></clipPath></defs><g clip-path="url(#f66cbede14)"><path fill="#01dbaf" d="M 54.003906 1.492188 L 5.988281 1.492188 C 3.230469 1.492188 0.988281 3.734375 0.988281 6.492188 L 0.988281 38.503906 C 0.988281 41.261719 3.230469 43.503906 5.988281 43.503906 L 54.003906 43.503906 C 56.765625 43.503906 59.003906 41.261719 59.003906 38.503906 L 59.003906 6.492188 C 59.003906 3.734375 56.765625 1.492188 54.003906 1.492188 Z M 40.269531 20.515625 L 56.664062 5.125 C 56.875 5.542969 57.003906 6.003906 57.003906 6.492188 L 57.003906 38.503906 C 57.003906 38.882812 56.925781 39.242188 56.792969 39.582031 Z M 54.003906 3.492188 C 54.433594 3.492188 54.84375 3.582031 55.203125 3.753906 L 29.996094 27.417969 L 4.789062 3.753906 C 5.148438 3.582031 5.558594 3.492188 5.988281 3.492188 Z M 3.199219 39.582031 C 3.070312 39.242188 2.988281 38.882812 2.988281 38.503906 L 2.988281 6.492188 C 2.988281 6.003906 3.117188 5.542969 3.328125 5.132812 L 19.722656 20.527344 Z M 5.988281 41.503906 C 5.449219 41.503906 4.960938 41.351562 4.519531 41.101562 L 21.183594 21.886719 L 29.304688 29.519531 C 29.496094 29.699219 29.746094 29.789062 29.988281 29.789062 C 30.226562 29.789062 30.476562 29.699219 30.667969 29.519531 L 38.789062 21.886719 L 55.472656 41.101562 C 55.035156 41.351562 54.542969 41.503906 54.003906 41.503906 Z M 5.988281 41.503906 " fill-opacity="1" fill-rule="nonzero"/></g></svg>